<?xml version="1.0" encoding="utf-8"?>
<!-- Generator: Adobe Illustrator 19.2.1, SVG Export Plug-In . SVG Version: 6.00 Build 0)  -->
<svg version="1.1" id="Layer_1" xmlns="http://www.w3.org/2000/svg" xmlns:xlink="http://www.w3.org/1999/xlink" x="0px" y="0px"
	 viewBox="0 0 42 42" style="enable-background:new 0 0 42 42;" xml:space="preserve">
<style type="text/css">
	.st0{fill:#4361A6;}
</style>
<g>
	<path class="st0" d="M21,0C9.4,0,0,9.4,0,21c0,11.6,9.4,21,21,21s21-9.4,21-21C42,9.4,32.6,0,21,0L21,0z M26.1,20.9h-3.6
		c0,5.8,0,12.9,0,12.9h-5.3c0,0,0-7.1,0-12.9h-2.6v-4.6h2.6v-3c0-2.1,0.9-5.4,5.3-5.4l4,0v4.4c0,0-2.4,0-2.9,0
		c-0.5,0-1.1,0.2-1.1,1.2v2.7h4.1L26.1,20.9L26.1,20.9z"/>
</g>
</svg>
