<?xml version="1.0" encoding="utf-8"?>
<!-- Generator: Adobe Illustrator 19.2.1, SVG Export Plug-In . SVG Version: 6.00 Build 0)  -->
<svg version="1.1" id="Layer_1" xmlns="http://www.w3.org/2000/svg" xmlns:xlink="http://www.w3.org/1999/xlink" x="0px" y="0px"
	 viewBox="0 0 42 42" style="enable-background:new 0 0 42 42;" xml:space="preserve">
<style type="text/css">
	.st0{fill:url(#SVGID_1_);}
	.st1{fill:#FFFFFF;}
</style>
<g>
	<radialGradient id="SVGID_1_" cx="7.0389" cy="43.0442" r="40.6044" gradientUnits="userSpaceOnUse">
		<stop  offset="0" style="stop-color:#FFD676"/>
		<stop  offset="0.2463" style="stop-color:#F2A454"/>
		<stop  offset="0.3793" style="stop-color:#F05C3C"/>
		<stop  offset="0.6995" style="stop-color:#C22F86"/>
		<stop  offset="0.9568" style="stop-color:#6666AD"/>
		<stop  offset="0.9852" style="stop-color:#5C6CB2"/>
	</radialGradient>
	<path class="st0" d="M21,0C9.4,0,0,9.4,0,21c0,11.6,9.4,21,21,21s21-9.4,21-21C42,9.4,32.6,0,21,0L21,0z"/>
	<g>
		<path class="st1" d="M21,10.7c3.4,0,3.8,0,5.2,0.1c1.2,0.1,1.9,0.3,2.4,0.4c0.6,0.2,1,0.5,1.5,1c0.4,0.4,0.7,0.9,1,1.5
			c0.2,0.5,0.4,1.1,0.4,2.4c0.1,1.3,0.1,1.8,0.1,5.2s0,3.8-0.1,5.2c-0.1,1.2-0.3,1.9-0.4,2.4c-0.2,0.6-0.5,1-1,1.5
			c-0.4,0.4-0.9,0.7-1.5,1c-0.5,0.2-1.1,0.4-2.4,0.4c-1.3,0.1-1.8,0.1-5.2,0.1s-3.8,0-5.2-0.1c-1.2-0.1-1.9-0.3-2.4-0.4
			c-0.6-0.2-1-0.5-1.5-1c-0.4-0.4-0.7-0.9-1-1.5c-0.2-0.5-0.4-1.1-0.4-2.4c-0.1-1.3-0.1-1.8-0.1-5.2s0-3.8,0.1-5.2
			c0.1-1.2,0.3-1.9,0.4-2.4c0.2-0.6,0.5-1,1-1.5c0.4-0.4,0.9-0.7,1.5-1c0.5-0.2,1.1-0.4,2.4-0.4C17.2,10.7,17.6,10.7,21,10.7
			 M21,8.4c-3.5,0-3.9,0-5.3,0.1c-1.4,0.1-2.3,0.3-3.1,0.6c-0.8,0.3-1.6,0.8-2.3,1.5c-0.7,0.7-1.1,1.4-1.5,2.3
			c-0.3,0.8-0.5,1.7-0.6,3.1c-0.1,1.4-0.1,1.8-0.1,5.3c0,3.5,0,3.9,0.1,5.3c0.1,1.4,0.3,2.3,0.6,3.1c0.3,0.8,0.8,1.6,1.5,2.3
			c0.7,0.7,1.4,1.1,2.3,1.5c0.8,0.3,1.7,0.5,3.1,0.6C17.1,34,17.5,34,21,34s3.9,0,5.3-0.1c1.4-0.1,2.3-0.3,3.1-0.6
			c0.8-0.3,1.6-0.8,2.3-1.5c0.7-0.7,1.1-1.4,1.5-2.3c0.3-0.8,0.5-1.7,0.6-3.1c0.1-1.4,0.1-1.8,0.1-5.3s0-3.9-0.1-5.3
			c-0.1-1.4-0.3-2.3-0.6-3.1c-0.3-0.8-0.8-1.6-1.5-2.3c-0.7-0.7-1.4-1.1-2.3-1.5c-0.8-0.3-1.7-0.5-3.1-0.6C24.9,8.4,24.5,8.4,21,8.4
			L21,8.4z"/>
		<path class="st1" d="M21,14.6c-3.6,0-6.6,2.9-6.6,6.6s2.9,6.6,6.6,6.6s6.6-2.9,6.6-6.6S24.6,14.6,21,14.6z M21,25.5
			c-2.4,0-4.3-1.9-4.3-4.3c0-2.4,1.9-4.3,4.3-4.3c2.4,0,4.3,1.9,4.3,4.3C25.3,23.6,23.4,25.5,21,25.5z"/>
		<circle class="st1" cx="27.8" cy="14.4" r="1.5"/>
	</g>
</g>
</svg>
